FFmpeg version SVN-r25716, Copyright (c) 2000-2010 the FFmpeg developers  built on Nov 10 2010 12:23:18 with gcc 4.1.2 20080704 (Red Hat 4.1.2-48)  configuration: --enable-libmp3lame --enable-shared --disable-mmx --arch=x86_64  libavutil     50.33. 0 / 50.33. 0  libavcore      0.12. 1 /  0.12. 1  libavcodec    52.94. 4 / 52.94. 4  libavformat   52.84. 0 / 52.84. 0  libavdevice   52. 2. 2 / 52. 2. 2  libavfilter    1.59. 0 /  1.59. 0  libswscale     0.12. 0 /  0.12. 0Input #0, avi, from '/RAID10/data/converted_video_files/26270.avi':  Duration: 00:00:04.00, start: 0.000000, bitrate: 11572 kb/s    Stream #0.0: Video: rawvideo, bgr24, 198x198, 12.25 tbr, 12.25 tbn, 12.25 tbc    Metadata:      title           : STK[buffer @ 0x1f6f8a50] w:198 h:198 pixfmt:bgr24[ffsink @ 0x1f6f8cc0] auto-inserting filter 'auto-inserted scaler 0' between the filter 'src' and the filter 'out'[scale @ 0x1f6f8fe0] w:198 h:198 fmt:bgr24 -> w:198 h:198 fmt:yuv420p flags:0x4Output #0, flv, to '/RAID10/data/converted_video_files/26270.flv':  Metadata:    encoder         : Lavf52.84.0    Stream #0.0: Video: flv, yuv420p, 198x198, q=2-31, 600 kb/s, 1k tbn, 24 tbc    Metadata:      title           : STKStream mapping:  Stream #0.0 -> #0.0Press [q] to stop encodingframe=   49 fps=  0 q=1.6 Lsize=      69kB time=3.96 bitrate= 142.5kbits/s    video:68kB audio:0kB global headers:0kB muxing overhead 1.430051%